<mxfile host="app.diagrams.net" agent="Mozilla/5.0 (Windows NT 10.0; Win64; x64) AppleWebKit/537.36 (KHTML, like Gecko) Chrome/131.0.0.0 Safari/537.36" version="25.0.1">
  <diagram name="Page-1" id="4EDEGwaHf9P7v1SkHgpE">
    <mxGraphModel grid="1" page="1" gridSize="10" guides="1" tooltips="1" connect="1" arrows="1" fold="1" pageScale="1" pageWidth="850" pageHeight="1100" math="0" shadow="0">
      <root>
        <mxCell id="0" />
        <mxCell id="1" parent="0" />
        <mxCell id="Ejrz8QhWFEB0U392NANQ-28" value="Gas Utilities - VPC" style="sketch=0;outlineConnect=0;gradientColor=none;html=1;whiteSpace=wrap;fontSize=12;fontStyle=0;shape=mxgraph.aws4.group;grIcon=mxgraph.aws4.group_vpc;strokeColor=#879196;fillColor=none;verticalAlign=top;align=left;spacingLeft=30;fontColor=#879196;dashed=0;" vertex="1" parent="1">
          <mxGeometry x="60" y="-332" width="1490" height="1502" as="geometry" />
        </mxCell>
        <mxCell id="c5tZIyshUJARIzKbnh6k-4" value="API GW" style="sketch=0;points=[[0,0,0],[0.25,0,0],[0.5,0,0],[0.75,0,0],[1,0,0],[0,1,0],[0.25,1,0],[0.5,1,0],[0.75,1,0],[1,1,0],[0,0.25,0],[0,0.5,0],[0,0.75,0],[1,0.25,0],[1,0.5,0],[1,0.75,0]];outlineConnect=0;fontColor=#232F3E;fillColor=#E7157B;strokeColor=#ffffff;dashed=0;verticalLabelPosition=bottom;verticalAlign=top;align=center;html=1;fontSize=12;fontStyle=0;aspect=fixed;shape=mxgraph.aws4.resourceIcon;resIcon=mxgraph.aws4.api_gateway;" vertex="1" parent="1">
          <mxGeometry x="164" y="39.50999999999999" width="78" height="78" as="geometry" />
        </mxCell>
        <mxCell id="D_zP5o6NSthtwzWJcST3-2" style="edgeStyle=orthogonalEdgeStyle;rounded=0;orthogonalLoop=1;jettySize=auto;html=1;" edge="1" parent="1" source="c5tZIyshUJARIzKbnh6k-25" target="D_zP5o6NSthtwzWJcST3-1">
          <mxGeometry relative="1" as="geometry" />
        </mxCell>
        <mxCell id="c5tZIyshUJARIzKbnh6k-25" value="S3 - Reports" style="sketch=0;outlineConnect=0;fontColor=#232F3E;gradientColor=none;fillColor=#7AA116;strokeColor=none;dashed=0;verticalLabelPosition=bottom;verticalAlign=top;align=center;html=1;fontSize=12;fontStyle=0;aspect=fixed;pointerEvents=1;shape=mxgraph.aws4.s3_object_lambda;" vertex="1" parent="1">
          <mxGeometry x="1018.08" y="-200" width="53" height="78" as="geometry" />
        </mxCell>
        <mxCell id="c5tZIyshUJARIzKbnh6k-29" value="Report&lt;div&gt;downloader&lt;/div&gt;" style="outlineConnect=0;dashed=0;verticalLabelPosition=bottom;verticalAlign=top;align=center;html=1;shape=mxgraph.aws3.lambda_function;fillColor=#F58534;gradientColor=none;" vertex="1" parent="1">
          <mxGeometry x="582.83" y="-200" width="69" height="72" as="geometry" />
        </mxCell>
        <mxCell id="c5tZIyshUJARIzKbnh6k-43" style="edgeStyle=orthogonalEdgeStyle;rounded=0;orthogonalLoop=1;jettySize=auto;html=1;" edge="1" parent="1" source="c5tZIyshUJARIzKbnh6k-33" target="c5tZIyshUJARIzKbnh6k-42">
          <mxGeometry relative="1" as="geometry" />
        </mxCell>
        <mxCell id="c5tZIyshUJARIzKbnh6k-33" value="Utilities queue" style="outlineConnect=0;dashed=0;verticalLabelPosition=bottom;verticalAlign=top;align=center;html=1;shape=mxgraph.aws3.sqs;fillColor=#D9A741;gradientColor=none;" vertex="1" parent="1">
          <mxGeometry x="790.83" y="81.49000000000001" width="76.5" height="93" as="geometry" />
        </mxCell>
        <mxCell id="c5tZIyshUJARIzKbnh6k-37" value="SNS - Report&lt;br&gt;&lt;div&gt;Notifier&lt;/div&gt;" style="outlineConnect=0;dashed=0;verticalLabelPosition=bottom;verticalAlign=top;align=center;html=1;shape=mxgraph.aws3.sns;fillColor=#D9A741;gradientColor=none;" vertex="1" parent="1">
          <mxGeometry x="1439.9299999999998" y="-198.5" width="76.5" height="76.5" as="geometry" />
        </mxCell>
        <mxCell id="c5tZIyshUJARIzKbnh6k-42" value="DLQ - Failed&amp;nbsp;&lt;div&gt;Reports&lt;br&gt;&lt;/div&gt;" style="outlineConnect=0;dashed=0;verticalLabelPosition=bottom;verticalAlign=top;align=center;html=1;shape=mxgraph.aws3.sqs;fillColor=#D9A741;gradientColor=none;" vertex="1" parent="1">
          <mxGeometry x="791.58" y="264.99" width="76.5" height="93" as="geometry" />
        </mxCell>
        <mxCell id="c5tZIyshUJARIzKbnh6k-44" value="SNS - Failure&amp;nbsp;&lt;div&gt;reporter&lt;br&gt;&lt;/div&gt;" style="outlineConnect=0;dashed=0;verticalLabelPosition=bottom;verticalAlign=top;align=center;html=1;shape=mxgraph.aws3.sns;fillColor=#D9A741;gradientColor=none;" vertex="1" parent="1">
          <mxGeometry x="1011.58" y="273.24" width="76.5" height="76.5" as="geometry" />
        </mxCell>
        <mxCell id="Ejrz8QhWFEB0U392NANQ-1" value="" style="endArrow=classic;html=1;rounded=0;exitX=0.5;exitY=1;exitDx=0;exitDy=0;exitPerimeter=0;entryX=0;entryY=0.5;entryDx=0;entryDy=0;entryPerimeter=0;" edge="1" parent="1" source="c5tZIyshUJARIzKbnh6k-4" target="Ejrz8QhWFEB0U392NANQ-5">
          <mxGeometry width="50" height="50" relative="1" as="geometry">
            <mxPoint x="230" y="-75.25" as="sourcePoint" />
            <mxPoint x="280" y="-125.25" as="targetPoint" />
          </mxGeometry>
        </mxCell>
        <mxCell id="Ejrz8QhWFEB0U392NANQ-7" value="POST /api/production" style="edgeLabel;html=1;align=center;verticalAlign=middle;resizable=0;points=[];" connectable="0" vertex="1" parent="Ejrz8QhWFEB0U392NANQ-1">
          <mxGeometry x="0.053" y="1" relative="1" as="geometry">
            <mxPoint y="1" as="offset" />
          </mxGeometry>
        </mxCell>
        <mxCell id="Ejrz8QhWFEB0U392NANQ-5" value="Gas Production&amp;nbsp;&lt;div&gt;Data&amp;nbsp;&lt;span style=&quot;background-color: initial;&quot;&gt;Updater&lt;/span&gt;&lt;/div&gt;" style="outlineConnect=0;dashed=0;verticalLabelPosition=bottom;verticalAlign=top;align=center;html=1;shape=mxgraph.aws3.lambda_function;fillColor=#F58534;gradientColor=none;" vertex="1" parent="1">
          <mxGeometry x="582.83" y="756" width="69" height="72" as="geometry" />
        </mxCell>
        <mxCell id="Ejrz8QhWFEB0U392NANQ-12" value="Fargate - Utilities&lt;div&gt;Processor&lt;br&gt;&lt;/div&gt;" style="sketch=0;points=[[0,0,0],[0.25,0,0],[0.5,0,0],[0.75,0,0],[1,0,0],[0,1,0],[0.25,1,0],[0.5,1,0],[0.75,1,0],[1,1,0],[0,0.25,0],[0,0.5,0],[0,0.75,0],[1,0.25,0],[1,0.5,0],[1,0.75,0]];outlineConnect=0;fontColor=#232F3E;fillColor=#ED7100;strokeColor=#ffffff;dashed=0;verticalLabelPosition=bottom;verticalAlign=top;align=center;html=1;fontSize=12;fontStyle=0;aspect=fixed;shape=mxgraph.aws4.resourceIcon;resIcon=mxgraph.aws4.fargate;" vertex="1" parent="1">
          <mxGeometry x="1004.08" y="88.99000000000001" width="78" height="78" as="geometry" />
        </mxCell>
        <mxCell id="Ejrz8QhWFEB0U392NANQ-13" value="" style="endArrow=classic;html=1;rounded=0;entryX=1;entryY=0.5;entryDx=0;entryDy=0;entryPerimeter=0;" edge="1" parent="1" source="Ejrz8QhWFEB0U392NANQ-12" target="c5tZIyshUJARIzKbnh6k-33">
          <mxGeometry width="50" height="50" relative="1" as="geometry">
            <mxPoint x="779.08" y="-473.01" as="sourcePoint" />
            <mxPoint x="853.3299999999999" y="127.98999999999978" as="targetPoint" />
          </mxGeometry>
        </mxCell>
        <mxCell id="Ejrz8QhWFEB0U392NANQ-14" value="&lt;div&gt;Gas Consumption&lt;/div&gt;&lt;div&gt;Serverless Aurora DB&lt;/div&gt;" style="sketch=0;points=[[0,0,0],[0.25,0,0],[0.5,0,0],[0.75,0,0],[1,0,0],[0,1,0],[0.25,1,0],[0.5,1,0],[0.75,1,0],[1,1,0],[0,0.25,0],[0,0.5,0],[0,0.75,0],[1,0.25,0],[1,0.5,0],[1,0.75,0]];outlineConnect=0;fontColor=#232F3E;fillColor=#C925D1;strokeColor=#ffffff;dashed=0;verticalLabelPosition=bottom;verticalAlign=top;align=center;html=1;fontSize=12;fontStyle=0;aspect=fixed;shape=mxgraph.aws4.resourceIcon;resIcon=mxgraph.aws4.aurora;" vertex="1" parent="1">
          <mxGeometry x="1004.08" y="467.4899999999999" width="78" height="78" as="geometry" />
        </mxCell>
        <mxCell id="Ejrz8QhWFEB0U392NANQ-17" value="" style="endArrow=classic;html=1;rounded=0;exitX=1;exitY=0.5;exitDx=0;exitDy=0;exitPerimeter=0;entryX=0;entryY=0.5;entryDx=0;entryDy=0;entryPerimeter=0;" edge="1" parent="1" source="c5tZIyshUJARIzKbnh6k-4" target="c5tZIyshUJARIzKbnh6k-29">
          <mxGeometry width="50" height="50" relative="1" as="geometry">
            <mxPoint x="235" y="234.51000000000022" as="sourcePoint" />
            <mxPoint x="351.5" y="289.51" as="targetPoint" />
          </mxGeometry>
        </mxCell>
        <mxCell id="Ejrz8QhWFEB0U392NANQ-19" value="GET /api/report/{date}/{zone}" style="edgeLabel;html=1;align=center;verticalAlign=middle;resizable=0;points=[];" connectable="0" vertex="1" parent="Ejrz8QhWFEB0U392NANQ-17">
          <mxGeometry x="-0.0324" relative="1" as="geometry">
            <mxPoint as="offset" />
          </mxGeometry>
        </mxCell>
        <mxCell id="Ejrz8QhWFEB0U392NANQ-20" value="" style="endArrow=classic;html=1;rounded=0;exitX=1;exitY=0.5;exitDx=0;exitDy=0;exitPerimeter=0;entryX=0;entryY=0.48;entryDx=0;entryDy=0;entryPerimeter=0;" edge="1" parent="1" source="c5tZIyshUJARIzKbnh6k-42" target="c5tZIyshUJARIzKbnh6k-44">
          <mxGeometry width="50" height="50" relative="1" as="geometry">
            <mxPoint x="823.08" y="-686.01" as="sourcePoint" />
            <mxPoint x="873.08" y="-736.01" as="targetPoint" />
          </mxGeometry>
        </mxCell>
        <mxCell id="Ejrz8QhWFEB0U392NANQ-21" value="" style="endArrow=classic;html=1;rounded=0;entryX=0;entryY=0.5;entryDx=0;entryDy=0;entryPerimeter=0;" edge="1" parent="1" source="Ejrz8QhWFEB0U392NANQ-5" target="IAW61SfKDDdMpeAvlEn6-5">
          <mxGeometry width="50" height="50" relative="1" as="geometry">
            <mxPoint x="737" y="-290" as="sourcePoint" />
            <mxPoint x="787" y="-340" as="targetPoint" />
          </mxGeometry>
        </mxCell>
        <mxCell id="Ejrz8QhWFEB0U392NANQ-22" value="" style="endArrow=classic;html=1;rounded=0;exitX=1;exitY=0.5;exitDx=0;exitDy=0;exitPerimeter=0;" edge="1" parent="1" source="c5tZIyshUJARIzKbnh6k-29" target="c5tZIyshUJARIzKbnh6k-25">
          <mxGeometry width="50" height="50" relative="1" as="geometry">
            <mxPoint x="620.58" y="201" as="sourcePoint" />
            <mxPoint x="670.58" y="151" as="targetPoint" />
          </mxGeometry>
        </mxCell>
        <mxCell id="Ejrz8QhWFEB0U392NANQ-23" value="" style="endArrow=classic;html=1;rounded=0;exitX=0.5;exitY=0;exitDx=0;exitDy=0;exitPerimeter=0;" edge="1" parent="1" source="Ejrz8QhWFEB0U392NANQ-12" target="c5tZIyshUJARIzKbnh6k-25">
          <mxGeometry width="50" height="50" relative="1" as="geometry">
            <mxPoint x="858.08" y="411.49" as="sourcePoint" />
            <mxPoint x="878.08" y="-68.50999999999999" as="targetPoint" />
          </mxGeometry>
        </mxCell>
        <mxCell id="Ejrz8QhWFEB0U392NANQ-25" value="Cognito (Authentication)" style="sketch=0;points=[[0,0,0],[0.25,0,0],[0.5,0,0],[0.75,0,0],[1,0,0],[0,1,0],[0.25,1,0],[0.5,1,0],[0.75,1,0],[1,1,0],[0,0.25,0],[0,0.5,0],[0,0.75,0],[1,0.25,0],[1,0.5,0],[1,0.75,0]];outlineConnect=0;fontColor=#232F3E;fillColor=#DD344C;strokeColor=#ffffff;dashed=0;verticalLabelPosition=bottom;verticalAlign=top;align=center;html=1;fontSize=12;fontStyle=0;aspect=fixed;shape=mxgraph.aws4.resourceIcon;resIcon=mxgraph.aws4.cognito;" vertex="1" parent="1">
          <mxGeometry x="164" y="-190" width="78" height="78" as="geometry" />
        </mxCell>
        <mxCell id="D_zP5o6NSthtwzWJcST3-9" style="edgeStyle=orthogonalEdgeStyle;rounded=0;orthogonalLoop=1;jettySize=auto;html=1;" edge="1" parent="1" source="Ejrz8QhWFEB0U392NANQ-27" target="D_zP5o6NSthtwzWJcST3-8">
          <mxGeometry relative="1" as="geometry" />
        </mxCell>
        <mxCell id="Ejrz8QhWFEB0U392NANQ-27" value="Amazon Cloudwatch" style="sketch=0;points=[[0,0,0],[0.25,0,0],[0.5,0,0],[0.75,0,0],[1,0,0],[0,1,0],[0.25,1,0],[0.5,1,0],[0.75,1,0],[1,1,0],[0,0.25,0],[0,0.5,0],[0,0.75,0],[1,0.25,0],[1,0.5,0],[1,0.75,0]];points=[[0,0,0],[0.25,0,0],[0.5,0,0],[0.75,0,0],[1,0,0],[0,1,0],[0.25,1,0],[0.5,1,0],[0.75,1,0],[1,1,0],[0,0.25,0],[0,0.5,0],[0,0.75,0],[1,0.25,0],[1,0.5,0],[1,0.75,0]];outlineConnect=0;fontColor=#232F3E;fillColor=#E7157B;strokeColor=#ffffff;dashed=0;verticalLabelPosition=bottom;verticalAlign=top;align=center;html=1;fontSize=12;fontStyle=0;aspect=fixed;shape=mxgraph.aws4.resourceIcon;resIcon=mxgraph.aws4.cloudwatch_2;" vertex="1" parent="1">
          <mxGeometry x="86" y="1050" width="78" height="78" as="geometry" />
        </mxCell>
        <mxCell id="Ejrz8QhWFEB0U392NANQ-42" value="" style="endArrow=classic;html=1;rounded=0;entryX=1;entryY=0.5;entryDx=0;entryDy=0;entryPerimeter=0;exitX=0;exitY=0.5;exitDx=0;exitDy=0;exitPerimeter=0;" edge="1" parent="1" source="Ejrz8QhWFEB0U392NANQ-34" target="Ejrz8QhWFEB0U392NANQ-14">
          <mxGeometry width="50" height="50" relative="1" as="geometry">
            <mxPoint x="941" y="503.8819597989949" as="sourcePoint" />
            <mxPoint x="835" y="261.4899999999999" as="targetPoint" />
          </mxGeometry>
        </mxCell>
        <mxCell id="IAW61SfKDDdMpeAvlEn6-4" value="" style="group" connectable="0" vertex="1" parent="1">
          <mxGeometry x="1612.08" y="396.24" width="260" height="218.5" as="geometry" />
        </mxCell>
        <mxCell id="Ejrz8QhWFEB0U392NANQ-29" value="Gas Consumption Tracker - VPC" style="sketch=0;outlineConnect=0;gradientColor=none;html=1;whiteSpace=wrap;fontSize=12;fontStyle=0;shape=mxgraph.aws4.group;grIcon=mxgraph.aws4.group_vpc;strokeColor=#879196;fillColor=none;verticalAlign=top;align=left;spacingLeft=30;fontColor=#879196;dashed=0;" vertex="1" parent="IAW61SfKDDdMpeAvlEn6-4">
          <mxGeometry x="-10" width="270" height="218.5" as="geometry" />
        </mxCell>
        <mxCell id="Ejrz8QhWFEB0U392NANQ-40" value="" style="endArrow=classic;html=1;rounded=0;entryX=1;entryY=0.5;entryDx=0;entryDy=0;entryPerimeter=0;" edge="1" parent="1" source="Ejrz8QhWFEB0U392NANQ-31" target="Ejrz8QhWFEB0U392NANQ-34">
          <mxGeometry width="50" height="50" relative="1" as="geometry">
            <mxPoint x="1088.15" y="408.9799999999999" as="sourcePoint" />
            <mxPoint x="1022.1499999999996" y="510.6900371747216" as="targetPoint" />
          </mxGeometry>
        </mxCell>
        <mxCell id="IAW61SfKDDdMpeAvlEn6-5" value="Gas Production DB&lt;div&gt;Dynamo DB&lt;/div&gt;" style="outlineConnect=0;dashed=0;verticalLabelPosition=bottom;verticalAlign=top;align=center;html=1;shape=mxgraph.aws3.dynamo_db;fillColor=#2E73B8;gradientColor=none;" vertex="1" parent="1">
          <mxGeometry x="1007.08" y="749" width="72" height="81" as="geometry" />
        </mxCell>
        <mxCell id="IAW61SfKDDdMpeAvlEn6-6" value="Production Data&lt;div&gt;Extractor&lt;/div&gt;" style="outlineConnect=0;dashed=0;verticalLabelPosition=bottom;verticalAlign=top;align=center;html=1;shape=mxgraph.aws3.lambda_function;fillColor=#F58534;gradientColor=none;" vertex="1" parent="1">
          <mxGeometry x="582.8299999999999" y="960" width="69" height="72" as="geometry" />
        </mxCell>
        <mxCell id="IAW61SfKDDdMpeAvlEn6-11" value="ConsumptionData&lt;div&gt;Extractor&lt;/div&gt;" style="outlineConnect=0;dashed=0;verticalLabelPosition=bottom;verticalAlign=top;align=center;html=1;shape=mxgraph.aws3.lambda_function;fillColor=#F58534;gradientColor=none;" vertex="1" parent="1">
          <mxGeometry x="582.83" y="467.7299999999999" width="69" height="72" as="geometry" />
        </mxCell>
        <mxCell id="IAW61SfKDDdMpeAvlEn6-12" value="" style="endArrow=classic;html=1;rounded=0;entryX=0;entryY=0.5;entryDx=0;entryDy=0;entryPerimeter=0;" edge="1" parent="1" source="IAW61SfKDDdMpeAvlEn6-11" target="Ejrz8QhWFEB0U392NANQ-14">
          <mxGeometry width="50" height="50" relative="1" as="geometry">
            <mxPoint x="322.08" y="576.06" as="sourcePoint" />
            <mxPoint x="372.08" y="526.06" as="targetPoint" />
          </mxGeometry>
        </mxCell>
        <mxCell id="IAW61SfKDDdMpeAvlEn6-18" value="Utilities DB" style="outlineConnect=0;dashed=0;verticalLabelPosition=bottom;verticalAlign=top;align=center;html=1;shape=mxgraph.aws3.dynamo_db;fillColor=#2E73B8;gradientColor=none;" vertex="1" parent="1">
          <mxGeometry x="1444.4299999999998" y="85.99000000000001" width="72" height="81" as="geometry" />
        </mxCell>
        <mxCell id="IAW61SfKDDdMpeAvlEn6-19" value="" style="endArrow=classic;html=1;rounded=0;entryX=0;entryY=0.5;entryDx=0;entryDy=0;entryPerimeter=0;exitX=1;exitY=0.5;exitDx=0;exitDy=0;exitPerimeter=0;" edge="1" parent="1" source="Ejrz8QhWFEB0U392NANQ-12" target="IAW61SfKDDdMpeAvlEn6-18">
          <mxGeometry width="50" height="50" relative="1" as="geometry">
            <mxPoint x="1042.08" y="-403.01" as="sourcePoint" />
            <mxPoint x="1092.08" y="-453.01" as="targetPoint" />
          </mxGeometry>
        </mxCell>
        <mxCell id="IAW61SfKDDdMpeAvlEn6-25" value="Report&lt;div&gt;Enqueuer&lt;/div&gt;" style="outlineConnect=0;dashed=0;verticalLabelPosition=bottom;verticalAlign=top;align=center;html=1;shape=mxgraph.aws3.lambda_function;fillColor=#F58534;gradientColor=none;" vertex="1" parent="1">
          <mxGeometry x="582.83" y="88.99000000000001" width="69" height="72" as="geometry" />
        </mxCell>
        <mxCell id="IAW61SfKDDdMpeAvlEn6-26" value="" style="endArrow=classic;html=1;rounded=0;exitX=1;exitY=0.5;exitDx=0;exitDy=0;exitPerimeter=0;entryX=0;entryY=0.5;entryDx=0;entryDy=0;entryPerimeter=0;" edge="1" parent="1" source="c5tZIyshUJARIzKbnh6k-4" target="IAW61SfKDDdMpeAvlEn6-25">
          <mxGeometry width="50" height="50" relative="1" as="geometry">
            <mxPoint x="280" y="400" as="sourcePoint" />
            <mxPoint x="330" y="350" as="targetPoint" />
          </mxGeometry>
        </mxCell>
        <mxCell id="IAW61SfKDDdMpeAvlEn6-28" value="PUT /api/report" style="edgeLabel;html=1;align=center;verticalAlign=middle;resizable=0;points=[];" connectable="0" vertex="1" parent="IAW61SfKDDdMpeAvlEn6-26">
          <mxGeometry x="-0.137" y="-1" relative="1" as="geometry">
            <mxPoint as="offset" />
          </mxGeometry>
        </mxCell>
        <mxCell id="IAW61SfKDDdMpeAvlEn6-27" value="" style="endArrow=classic;html=1;rounded=0;exitX=1;exitY=0.5;exitDx=0;exitDy=0;exitPerimeter=0;" edge="1" parent="1" source="IAW61SfKDDdMpeAvlEn6-25" target="c5tZIyshUJARIzKbnh6k-33">
          <mxGeometry width="50" height="50" relative="1" as="geometry">
            <mxPoint x="269.08" y="181.49" as="sourcePoint" />
            <mxPoint x="319.08" y="131.49" as="targetPoint" />
          </mxGeometry>
        </mxCell>
        <mxCell id="IAW61SfKDDdMpeAvlEn6-29" value="" style="endArrow=classic;html=1;rounded=0;exitX=0.5;exitY=1;exitDx=0;exitDy=0;exitPerimeter=0;entryX=0.145;entryY=0.145;entryDx=0;entryDy=0;entryPerimeter=0;" edge="1" parent="1" source="c5tZIyshUJARIzKbnh6k-4" target="IAW61SfKDDdMpeAvlEn6-11">
          <mxGeometry width="50" height="50" relative="1" as="geometry">
            <mxPoint x="230" y="530" as="sourcePoint" />
            <mxPoint x="280" y="480" as="targetPoint" />
          </mxGeometry>
        </mxCell>
        <mxCell id="aOs1pLIyG8DCKxvJMUr1-8" value="GET /api/consumption/{zoneId}/{date}" style="edgeLabel;html=1;align=center;verticalAlign=middle;resizable=0;points=[];" connectable="0" vertex="1" parent="IAW61SfKDDdMpeAvlEn6-29">
          <mxGeometry x="0.1471" y="-1" relative="1" as="geometry">
            <mxPoint as="offset" />
          </mxGeometry>
        </mxCell>
        <mxCell id="Ejrz8QhWFEB0U392NANQ-31" value="" style="sketch=0;outlineConnect=0;fontColor=#232F3E;gradientColor=none;fillColor=#C925D1;strokeColor=none;dashed=0;verticalLabelPosition=bottom;verticalAlign=top;align=center;html=1;fontSize=12;fontStyle=0;aspect=fixed;pointerEvents=1;shape=mxgraph.aws4.rds_oracle_instance;" vertex="1" parent="1">
          <mxGeometry x="1703.08" y="467.7299999999999" width="78" height="78" as="geometry" />
        </mxCell>
        <mxCell id="IAW61SfKDDdMpeAvlEn6-41" value="Utilities processor consumes:&amp;nbsp;&lt;div&gt;&lt;span style=&quot;font-size: 11px; text-wrap-mode: nowrap; background-color: rgb(255, 255, 255);&quot;&gt;GET /api/production/{zoneId}/{date}&lt;/span&gt;&lt;/div&gt;&lt;div&gt;&lt;span style=&quot;font-size: 11px; text-wrap-mode: nowrap; background-color: rgb(255, 255, 255);&quot;&gt;GET /api/consumption/{zoneId}/{date}&lt;/span&gt;&lt;span style=&quot;font-size: 11px; text-wrap-mode: nowrap; background-color: rgb(255, 255, 255);&quot;&gt;&lt;/span&gt;&lt;/div&gt;" style="shape=note2;boundedLbl=1;whiteSpace=wrap;html=1;size=25;verticalAlign=top;align=center;" vertex="1" parent="1">
          <mxGeometry x="1103" y="19.999999999999996" width="324.92" height="80.49" as="geometry" />
        </mxCell>
        <mxCell id="IAW61SfKDDdMpeAvlEn6-42" style="edgeStyle=orthogonalEdgeStyle;rounded=0;orthogonalLoop=1;jettySize=auto;html=1;exitX=1;exitY=0.5;exitDx=0;exitDy=0;exitPerimeter=0;entryX=0.5;entryY=1;entryDx=0;entryDy=0;entryPerimeter=0;" edge="1" parent="1" source="IAW61SfKDDdMpeAvlEn6-6" target="IAW61SfKDDdMpeAvlEn6-5">
          <mxGeometry relative="1" as="geometry" />
        </mxCell>
        <mxCell id="0VTz6vtzSviisEMLgLLl-1" value="Web Client" style="image;points=[];aspect=fixed;html=1;align=center;shadow=0;dashed=0;image=img/lib/allied_telesis/computer_and_terminals/Personal_Computer.svg;" vertex="1" parent="1">
          <mxGeometry x="-260" y="-200" width="95.92" height="130" as="geometry" />
        </mxCell>
        <mxCell id="0VTz6vtzSviisEMLgLLl-5" value="" style="endArrow=classic;html=1;rounded=0;fontSize=12;startSize=8;endSize=8;curved=1;entryX=0;entryY=0.5;entryDx=0;entryDy=0;entryPerimeter=0;" edge="1" parent="1" source="0VTz6vtzSviisEMLgLLl-1">
          <mxGeometry width="50" height="50" relative="1" as="geometry">
            <mxPoint x="-170" y="-179" as="sourcePoint" />
            <mxPoint x="164" y="-180" as="targetPoint" />
          </mxGeometry>
        </mxCell>
        <mxCell id="0VTz6vtzSviisEMLgLLl-7" value="Authentication" style="edgeLabel;html=1;align=center;verticalAlign=middle;resizable=0;points=[];fontSize=12;" connectable="0" vertex="1" parent="0VTz6vtzSviisEMLgLLl-5">
          <mxGeometry x="-0.4207" y="8" relative="1" as="geometry">
            <mxPoint as="offset" />
          </mxGeometry>
        </mxCell>
        <mxCell id="0VTz6vtzSviisEMLgLLl-6" value="" style="endArrow=classic;html=1;rounded=0;fontSize=12;startSize=8;endSize=8;curved=1;exitX=0;exitY=0.5;exitDx=0;exitDy=0;exitPerimeter=0;" edge="1" parent="1" source="Ejrz8QhWFEB0U392NANQ-25">
          <mxGeometry width="50" height="50" relative="1" as="geometry">
            <mxPoint x="-50" y="-90" as="sourcePoint" />
            <mxPoint x="-160" y="-110" as="targetPoint" />
          </mxGeometry>
        </mxCell>
        <mxCell id="0VTz6vtzSviisEMLgLLl-8" value="Token" style="edgeLabel;html=1;align=center;verticalAlign=middle;resizable=0;points=[];fontSize=12;" connectable="0" vertex="1" parent="0VTz6vtzSviisEMLgLLl-6">
          <mxGeometry x="0.0572" y="1" relative="1" as="geometry">
            <mxPoint x="-1" as="offset" />
          </mxGeometry>
        </mxCell>
        <mxCell id="0VTz6vtzSviisEMLgLLl-9" value="" style="endArrow=classic;html=1;rounded=0;fontSize=12;startSize=8;endSize=8;curved=1;exitX=1.038;exitY=0.905;exitDx=0;exitDy=0;exitPerimeter=0;entryX=0;entryY=0.25;entryDx=0;entryDy=0;entryPerimeter=0;" edge="1" parent="1" source="0VTz6vtzSviisEMLgLLl-1" target="c5tZIyshUJARIzKbnh6k-4">
          <mxGeometry width="50" height="50" relative="1" as="geometry">
            <mxPoint x="-100" y="-30" as="sourcePoint" />
            <mxPoint x="-50" y="-80" as="targetPoint" />
          </mxGeometry>
        </mxCell>
        <mxCell id="0VTz6vtzSviisEMLgLLl-10" value="HTTP Request wih Token" style="edgeLabel;html=1;align=center;verticalAlign=middle;resizable=0;points=[];fontSize=12;" connectable="0" vertex="1" parent="0VTz6vtzSviisEMLgLLl-9">
          <mxGeometry x="-0.0549" y="-5" relative="1" as="geometry">
            <mxPoint x="-1" as="offset" />
          </mxGeometry>
        </mxCell>
        <mxCell id="0VTz6vtzSviisEMLgLLl-11" value="" style="endArrow=classic;startArrow=classic;html=1;rounded=0;fontSize=12;startSize=8;endSize=8;curved=1;entryX=0.5;entryY=1;entryDx=0;entryDy=0;entryPerimeter=0;exitX=0.5;exitY=0;exitDx=0;exitDy=0;exitPerimeter=0;" edge="1" parent="1" source="c5tZIyshUJARIzKbnh6k-4" target="Ejrz8QhWFEB0U392NANQ-25">
          <mxGeometry width="50" height="50" relative="1" as="geometry">
            <mxPoint x="178" y="-10" as="sourcePoint" />
            <mxPoint x="228" y="-60" as="targetPoint" />
          </mxGeometry>
        </mxCell>
        <mxCell id="0VTz6vtzSviisEMLgLLl-12" value="Token Verification" style="edgeLabel;html=1;align=center;verticalAlign=middle;resizable=0;points=[];fontSize=12;" connectable="0" vertex="1" parent="0VTz6vtzSviisEMLgLLl-11">
          <mxGeometry x="-0.0983" y="-2" relative="1" as="geometry">
            <mxPoint as="offset" />
          </mxGeometry>
        </mxCell>
        <mxCell id="D_zP5o6NSthtwzWJcST3-7" style="edgeStyle=orthogonalEdgeStyle;rounded=0;orthogonalLoop=1;jettySize=auto;html=1;" edge="1" parent="1" source="aOs1pLIyG8DCKxvJMUr1-1" target="IAW61SfKDDdMpeAvlEn6-25">
          <mxGeometry relative="1" as="geometry" />
        </mxCell>
        <mxCell id="aOs1pLIyG8DCKxvJMUr1-1" value="Programmatic request&amp;nbsp;&lt;div&gt;generation&lt;/div&gt;" style="sketch=0;points=[[0,0,0],[0.25,0,0],[0.5,0,0],[0.75,0,0],[1,0,0],[0,1,0],[0.25,1,0],[0.5,1,0],[0.75,1,0],[1,1,0],[0,0.25,0],[0,0.5,0],[0,0.75,0],[1,0.25,0],[1,0.5,0],[1,0.75,0]];outlineConnect=0;fontColor=#232F3E;fillColor=#E7157B;strokeColor=#ffffff;dashed=0;verticalLabelPosition=bottom;verticalAlign=top;align=center;html=1;fontSize=12;fontStyle=0;aspect=fixed;shape=mxgraph.aws4.resourceIcon;resIcon=mxgraph.aws4.eventbridge;" vertex="1" parent="1">
          <mxGeometry x="578.33" y="273.24" width="78" height="78" as="geometry" />
        </mxCell>
        <mxCell id="Ejrz8QhWFEB0U392NANQ-34" value="" style="strokeWidth=2;html=1;shape=mxgraph.flowchart.database;whiteSpace=wrap;" vertex="1" parent="1">
          <mxGeometry x="1301.15" y="476.7299999999999" width="60" height="60" as="geometry" />
        </mxCell>
        <mxCell id="Ejrz8QhWFEB0U392NANQ-35" value="Amazon DMS" style="text;html=1;align=center;verticalAlign=middle;resizable=0;points=[];autosize=1;strokeColor=none;fillColor=none;" vertex="1" parent="1">
          <mxGeometry x="1281.15" y="539.7299999999999" width="100" height="30" as="geometry" />
        </mxCell>
        <mxCell id="aOs1pLIyG8DCKxvJMUr1-4" style="edgeStyle=orthogonalEdgeStyle;rounded=0;orthogonalLoop=1;jettySize=auto;html=1;entryX=0;entryY=0.5;entryDx=0;entryDy=0;entryPerimeter=0;" edge="1" parent="1" source="c5tZIyshUJARIzKbnh6k-4" target="IAW61SfKDDdMpeAvlEn6-6">
          <mxGeometry relative="1" as="geometry">
            <Array as="points">
              <mxPoint x="203" y="996" />
            </Array>
          </mxGeometry>
        </mxCell>
        <mxCell id="aOs1pLIyG8DCKxvJMUr1-9" value="GET /api/production/{zoneId}/{date}" style="edgeLabel;html=1;align=center;verticalAlign=middle;resizable=0;points=[];" connectable="0" vertex="1" parent="aOs1pLIyG8DCKxvJMUr1-4">
          <mxGeometry x="-0.5081" y="-1" relative="1" as="geometry">
            <mxPoint as="offset" />
          </mxGeometry>
        </mxCell>
        <mxCell id="D_zP5o6NSthtwzWJcST3-3" style="edgeStyle=orthogonalEdgeStyle;rounded=0;orthogonalLoop=1;jettySize=auto;html=1;" edge="1" parent="1" source="D_zP5o6NSthtwzWJcST3-1" target="c5tZIyshUJARIzKbnh6k-37">
          <mxGeometry relative="1" as="geometry" />
        </mxCell>
        <mxCell id="D_zP5o6NSthtwzWJcST3-1" value="Report Notifier" style="outlineConnect=0;dashed=0;verticalLabelPosition=bottom;verticalAlign=top;align=center;html=1;shape=mxgraph.aws3.lambda_function;fillColor=#F58534;gradientColor=none;" vertex="1" parent="1">
          <mxGeometry x="1241" y="-197" width="69" height="72" as="geometry" />
        </mxCell>
        <mxCell id="D_zP5o6NSthtwzWJcST3-8" value="SNS - Report&lt;br&gt;&lt;div&gt;Notifier&lt;/div&gt;" style="outlineConnect=0;dashed=0;verticalLabelPosition=bottom;verticalAlign=top;align=center;html=1;shape=mxgraph.aws3.sns;fillColor=#D9A741;gradientColor=none;" vertex="1" parent="1">
          <mxGeometry x="313.9999999999999" y="1050" width="76.5" height="76.5" as="geometry" />
        </mxCell>
        <mxCell id="D_zP5o6NSthtwzWJcST3-11" style="edgeStyle=orthogonalEdgeStyle;rounded=0;orthogonalLoop=1;jettySize=auto;html=1;" edge="1" parent="1" source="D_zP5o6NSthtwzWJcST3-10" target="Ejrz8QhWFEB0U392NANQ-12">
          <mxGeometry relative="1" as="geometry" />
        </mxCell>
        <mxCell id="D_zP5o6NSthtwzWJcST3-10" value="X-Ray" style="sketch=0;points=[[0,0,0],[0.25,0,0],[0.5,0,0],[0.75,0,0],[1,0,0],[0,1,0],[0.25,1,0],[0.5,1,0],[0.75,1,0],[1,1,0],[0,0.25,0],[0,0.5,0],[0,0.75,0],[1,0.25,0],[1,0.5,0],[1,0.75,0]];outlineConnect=0;fontColor=#232F3E;fillColor=#C925D1;strokeColor=#ffffff;dashed=0;verticalLabelPosition=bottom;verticalAlign=top;align=center;html=1;fontSize=12;fontStyle=0;aspect=fixed;shape=mxgraph.aws4.resourceIcon;resIcon=mxgraph.aws4.xray;" vertex="1" parent="1">
          <mxGeometry x="1210" y="195.24" width="78" height="78" as="geometry" />
        </mxCell>
      </root>
    </mxGraphModel>
  </diagram>
</mxfile>
